<?xml version="1.0" encoding="UTF-8"?>
<svg width="96px" height="24px" viewBox="0 0 96 24" version="1.1" xmlns="http://www.w3.org/2000/svg" xmlns:xlink="http://www.w3.org/1999/xlink">
    <!-- Generator: Sketch 48.1 (47250) - http://www.bohemiancoding.com/sketch -->
    <title>dark</title>
    <desc>Created with Sketch.</desc>
    <defs></defs>
    <g id="Page-1" stroke="none" stroke-width="1" fill="none" fill-rule="evenodd">
        <g id="dark">
            <path d="M13.3,8.6 L13.3,23 L9.88,23 L9.88,20.69 L9.82,20.69 C9.19,22.13 7.48,23.42 5.35,23.42 C1.6,23.42 0.04,20.54 0.04,17.6 L0.04,8.6 L3.64,8.6 L3.64,16.58 C3.64,18.29 4.03,20.42 6.34,20.42 C8.62,20.42 9.7,18.44 9.7,16.52 L9.7,8.6 L13.3,8.6 Z M17.68,23 L17.68,0.32 L21.28,0.32 L21.28,14.66 L21.37,14.66 L26.83,8.6 L31.45,8.6 L25.21,15.11 L31.84,23 L27.07,23 L21.37,15.62 L21.28,15.62 L21.28,23 L17.68,23 Z M33.97,23 L33.97,8.6 L37.57,8.6 L37.57,23 L33.97,23 Z M33.46,3.71 C33.46,2.57 34.42,1.55 35.74,1.55 C37.06,1.55 38.08,2.48 38.08,3.71 C38.08,4.94 37.06,5.87 35.74,5.87 C34.42,5.87 33.46,4.85 33.46,3.71 Z M42.4,11.48 L39.88,11.48 L39.88,8.6 L42.4,8.6 L42.4,4.43 L45.94,4.43 L45.94,8.6 L49.54,8.6 L49.54,11.48 L45.94,11.48 L45.94,18.17 C45.94,19.46 46.24,20.39 47.83,20.39 C48.31,20.39 48.94,20.3 49.36,20.09 L49.48,22.91 C48.85,23.15 47.89,23.3 47.08,23.3 C43.27,23.3 42.4,20.96 42.4,18.2 L42.4,11.48 Z" id="ukit" fill="#26303B"></path>
            <path d="M58.22,23 L58.22,8.6 L61.82,8.6 L61.82,23 L58.22,23 Z M57.71,3.71 C57.71,2.57 58.67,1.55 59.99,1.55 C61.31,1.55 62.33,2.48 62.33,3.71 C62.33,4.94 61.31,5.87 59.99,5.87 C58.67,5.87 57.71,4.85 57.71,3.71 Z M78.5,10.43 L76.04,12.59 C75.47,11.78 74.24,11.18 73.07,11.18 C70.43,11.18 69.11,13.55 69.11,15.8 C69.11,18.05 70.46,20.42 73.19,20.42 C74.3,20.42 75.53,19.97 76.22,19.13 L78.47,21.41 C77.27,22.7 75.29,23.42 73.16,23.42 C68.9,23.42 65.36,20.6 65.36,15.8 C65.36,11.12 68.84,8.18 73.07,8.18 C75.17,8.18 77.36,9.02 78.5,10.43 Z M80,15.74 C80,11.21 83.48,8.18 87.83,8.18 C92.18,8.18 95.66,11.21 95.66,15.74 C95.66,20.27 92.18,23.42 87.83,23.42 C83.48,23.42 80,20.27 80,15.74 Z M83.66,15.74 C83.66,17.99 84.98,20.42 87.83,20.42 C90.68,20.42 92,17.99 92,15.74 C92,13.49 90.68,11.12 87.83,11.12 C84.98,11.12 83.66,13.49 83.66,15.74 Z" id="ico" fill="#3D25F9"></path>
        </g>
    </g>
</svg>
